<?xml version="1.0" encoding="UTF-8"?>
<svg version="1.1" xmlns="http://www.w3.org/2000/svg" width="512" height="512">
<path d="M0 0 C155.1 0 310.2 0 470 0 C465.30352453 9.39295094 460.73445751 18.47557695 455.375 27.4375 C450.47381846 35.73343931 445.68117907 44.07795742 441 52.5 C435.86423178 61.72961083 430.59786719 70.87238245 425.25 79.98046875 C420.47041897 88.14203011 415.84651136 96.38444983 411.24780273 104.64892578 C407.27184365 111.77628267 403.19836002 118.83939092 399.0625 125.875 C394.08266605 134.34965015 389.24910897 142.89400177 384.5 151.5 C379.19787678 161.10813142 373.76039135 170.62178932 368.19921875 180.08203125 C364.04099803 187.17161027 359.99629033 194.31803493 356 201.5 C351.44730708 209.68190842 346.80751931 217.8031357 342.0625 225.875 C337.08266605 234.34965015 332.24910897 242.89400177 327.5 251.5 C322.19914549 261.10583235 316.76220901 270.61674763 311.20361328 280.07543945 C306.39401195 288.27753954 301.7349018 296.55813538 297.10473633 304.86254883 C292.01353572 313.99167186 286.83948492 323.07110668 281.63964844 332.13867188 C278.84388375 337.0175227 276.05555882 341.90062428 273.26641846 346.78326416 C271.56332012 349.76452998 269.8597607 352.7455323 268.15625 355.7265625 C267.46484156 356.93652218 266.77343531 358.14648312 266.08203125 359.35644531 C256.0546875 376.90429688 246.02734375 394.45214844 236 412 C235.34 412 234.68 412 234 412 C233.64921387 411.36835938 233.29842773 410.73671875 232.93701172 410.0859375 C226.39814036 398.32571276 219.81367372 386.6035702 213 375 C207.58544342 365.77567764 202.31369267 356.47985459 197.10498047 347.13793945 C192.01375391 338.00862258 186.83957525 328.92905085 181.63964844 319.86132812 C178.84425074 314.98311773 176.05629125 310.10065746 173.26751709 305.21865845 C171.558845 302.22763672 169.84971026 299.23687939 168.140625 296.24609375 C167.44856552 295.03499474 166.75650823 293.82389448 166.06445312 292.61279297 C165.72260986 292.01456726 165.3807666 291.41634155 165.02856445 290.79998779 C161.98242188 285.4692383 161.98242188 285.4692383 160.98190308 283.71832275 C160.3169745 282.55470284 159.65203717 281.39108793 158.98709106 280.22747803 C157.32631175 277.32120324 155.66568547 274.41484121 154.00537109 271.50830078 C150.98910479 266.2283828 147.97170277 260.94912984 144.94869995 255.67306519 C143.2567216 252.71996984 141.56562536 249.76637011 139.875 246.8125 C139.54244202 246.23149536 139.20988403 245.65049072 138.86724854 245.05187988 C134.15330102 236.81214849 129.49632005 228.54203158 124.875 220.25 C119.77785402 211.10554429 114.55001254 202.04640908 109.24951172 193.01855469 C104.46994408 184.85740626 99.84633398 176.61523139 95.24780273 168.35107422 C91.27184365 161.22371733 87.19836002 154.16060908 83.0625 147.125 C77.42100837 137.52434496 71.98787386 127.82047748 66.60791016 118.07128906 C61.92756413 109.61248188 57.09813666 101.2516336 52.19921875 92.91796875 C48.04099732 85.82838852 43.9963387 78.68193905 40 71.5 C35.42433028 63.27796383 30.76390964 55.1144174 26 47 C21.06478363 38.58638576 16.21103004 30.13148105 11.4375 21.625 C10.86580078 20.60921875 10.29410156 19.5934375 9.70507812 18.546875 C9.16173828 17.57492188 8.61839844 16.60296875 8.05859375 15.6015625 C7.35174438 14.33820068 7.35174438 14.33820068 6.63061523 13.04931641 C4.32983595 8.74676614 2.18199561 4.36399121 0 0 Z " fill="#000000" transform="translate(21,50)"/>
</svg>
